<?xml version="1.0" encoding="utf-8"?>
<!DOCTYPE svg PUBLIC "-//W3C//DTD SVG 1.1//EN" "http://www.w3.org/Graphics/SVG/1.1/DTD/svg11.dtd">
<svg width="140" height="140" viewBox="-69.5 -69.5 140 140" version="1.1" xmlns="http://www.w3.org/2000/svg">
  <g opacity="0.5" text-anchor="middle" font-size="15" font-family="Calibri Light, Ubuntu Light, Helvetica Neue UltraLight">
    <text y="30">UTC+7</text>
    <text y="-30">13:08</text>
  </g>
  <g fill="none" stroke="#000000" stroke-width="0.5">
    <circle r="65" />
    <line x1="0" y1="-63" x2="0" y2="-58" />
    <line x1="31.5" y1="-54.5596" x2="30.5" y2="-52.82755" />
    <line x1="54.5596" y1="-31.5" x2="52.82755" y2="-30.5" />
    <line x1="63" y1="0" x2="58" y2="0" />
    <line x1="54.5596" y1="31.5" x2="52.82755" y2="30.5" />
    <line x1="31.5" y1="54.5596" x2="30.5" y2="52.82755" />
    <line x1="0" y1="63" x2="0" y2="58" />
    <line x1="-31.5" y1="54.5596" x2="-30.5" y2="52.82755" />
    <line x1="-54.5596" y1="31.5" x2="-52.82755" y2="30.5" />
    <line x1="-63" y1="0" x2="-58" y2="0" />
    <line x1="-54.5596" y1="-31.5" x2="-52.82755" y2="-30.5" />
    <line x1="-31.5" y1="-54.5596" x2="-30.5" y2="-52.82755" />
    <line x1="16.987717" y1="-24.726857" x2="0" y2="-0" />
    <line x1="40.386999" y1="-29.476945" x2="0" y2="-0" />
  </g>
</svg>